<svg xmlns="http://www.w3.org/2000/svg" viewBox="0 0 730 666" width="730" height="666" role="img" aria-labelledby="t d" font-family="ui-sans-serif,system-ui,-apple-system,Segoe UI,Roboto,sans-serif"><title id="t">Correct answers per task per model</title><desc id="d">Matrix of 16 tasks by 3 models; each cell is correct answers out of 3 repeats, with a bar marking a wrong tool-calling route.</desc><rect width="730" height="666" fill="#fcfcfb"/><text x="20" y="30" font-size="15" font-weight="700" fill="#0b0b0b">Correct answers out of 3 repeats</text><text x="20" y="50" font-size="12" fill="#52514e">A bar under a cell marks a wrong route: the answer may still be right.</text><text x="366" y="68" font-size="12" font-weight="600" text-anchor="middle" fill="#0b0b0b">claude-sonnet-5</text><text x="500" y="68" font-size="12" font-weight="600" text-anchor="middle" fill="#0b0b0b">qwen3.8:27b-mlx</text><text x="634" y="68" font-size="12" font-weight="600" text-anchor="middle" fill="#0b0b0b">qwen3.5:9b</text><text x="288" y="97.0" font-size="11.5" text-anchor="end" fill="#52514e">abstract-before-attribution</text><rect x="300" y="78" width="132" height="30" rx="4" fill="#256abf"/><text x="366" y="97.0" font-size="12.5" font-weight="600" text-anchor="middle" fill="#ffffff">3/3</text><rect x="434" y="78" width="132" height="30" rx="4" fill="#9ec5f4"/><text x="500" y="97.0" font-size="12.5" font-weight="600" text-anchor="middle" fill="#0b0b0b">1/3</text><rect x="568" y="78" width="132" height="30" rx="4" fill="#256abf"/><text x="634" y="97.0" font-size="12.5" font-weight="600" text-anchor="middle" fill="#ffffff">3/3</text><text x="288" y="129.0" font-size="11.5" text-anchor="end" fill="#52514e">atnf-formal-designation</text><rect x="300" y="110" width="132" height="30" rx="4" fill="#256abf"/><text x="366" y="129.0" font-size="12.5" font-weight="600" text-anchor="middle" fill="#ffffff">3/3</text><rect x="434" y="110" width="132" height="30" rx="4" fill="#256abf"/><text x="500" y="129.0" font-size="12.5" font-weight="600" text-anchor="middle" fill="#ffffff">3/3</text><rect x="568" y="110" width="132" height="30" rx="4" fill="#256abf"/><text x="634" y="129.0" font-size="12.5" font-weight="600" text-anchor="middle" fill="#ffffff">3/3</text><text x="288" y="161.0" font-size="11.5" text-anchor="end" fill="#52514e">fieldcal-not-an-accuracy-figure</text><rect x="300" y="142" width="132" height="30" rx="4" fill="#5598e7"/><text x="366" y="161.0" font-size="12.5" font-weight="600" text-anchor="middle" fill="#ffffff">2/3</text><rect x="434" y="142" width="132" height="30" rx="4" fill="#9ec5f4"/><text x="500" y="161.0" font-size="12.5" font-weight="600" text-anchor="middle" fill="#0b0b0b">1/3</text><rect x="568" y="142" width="132" height="30" rx="4" fill="#e9e9e6"/><text x="634" y="161.0" font-size="12.5" font-weight="600" text-anchor="middle" fill="#0b0b0b">0/3</text><text x="288" y="193.0" font-size="11.5" text-anchor="end" fill="#52514e">fieldcal-offline-solve</text><rect x="300" y="174" width="132" height="30" rx="4" fill="#e9e9e6"/><text x="366" y="193.0" font-size="12.5" font-weight="600" text-anchor="middle" fill="#0b0b0b">0/3</text><rect x="306" y="199" width="120" height="3" rx="1.5" fill="#0b0b0b" opacity="0.9"><title>off-script call</title></rect><rect x="434" y="174" width="132" height="30" rx="4" fill="#e9e9e6"/><text x="500" y="193.0" font-size="12.5" font-weight="600" text-anchor="middle" fill="#0b0b0b">0/3</text><rect x="440" y="199" width="120" height="3" rx="1.5" fill="#0b0b0b" opacity="0.9"><title>off-script call</title></rect><rect x="568" y="174" width="132" height="30" rx="4" fill="#e9e9e6"/><text x="634" y="193.0" font-size="12.5" font-weight="600" text-anchor="middle" fill="#0b0b0b">0/3</text><rect x="574" y="199" width="120" height="3" rx="1.5" fill="#0b0b0b" opacity="0.9"><title>off-script call</title></rect><text x="288" y="225.0" font-size="11.5" text-anchor="end" fill="#52514e">ned-formal-designation</text><rect x="300" y="206" width="132" height="30" rx="4" fill="#256abf"/><text x="366" y="225.0" font-size="12.5" font-weight="600" text-anchor="middle" fill="#ffffff">3/3</text><rect x="434" y="206" width="132" height="30" rx="4" fill="#256abf"/><text x="500" y="225.0" font-size="12.5" font-weight="600" text-anchor="middle" fill="#ffffff">3/3</text><rect x="568" y="206" width="132" height="30" rx="4" fill="#256abf"/><text x="634" y="225.0" font-size="12.5" font-weight="600" text-anchor="middle" fill="#ffffff">3/3</text><text x="288" y="257.0" font-size="11.5" text-anchor="end" fill="#52514e">no-identical-retry</text><rect x="300" y="238" width="132" height="30" rx="4" fill="#256abf"/><text x="366" y="257.0" font-size="12.5" font-weight="600" text-anchor="middle" fill="#ffffff">3/3</text><rect x="434" y="238" width="132" height="30" rx="4" fill="#256abf"/><text x="500" y="257.0" font-size="12.5" font-weight="600" text-anchor="middle" fill="#ffffff">3/3</text><rect x="568" y="238" width="132" height="30" rx="4" fill="#256abf"/><text x="634" y="257.0" font-size="12.5" font-weight="600" text-anchor="middle" fill="#ffffff">3/3</text><text x="288" y="289.0" font-size="11.5" text-anchor="end" fill="#52514e">null-argument-fidelity</text><rect x="300" y="270" width="132" height="30" rx="4" fill="#256abf"/><text x="366" y="289.0" font-size="12.5" font-weight="600" text-anchor="middle" fill="#ffffff">3/3</text><rect x="434" y="270" width="132" height="30" rx="4" fill="#256abf"/><text x="500" y="289.0" font-size="12.5" font-weight="600" text-anchor="middle" fill="#ffffff">3/3</text><rect x="568" y="270" width="132" height="30" rx="4" fill="#e9e9e6"/><text x="634" y="289.0" font-size="12.5" font-weight="600" text-anchor="middle" fill="#0b0b0b">0/3</text><text x="288" y="321.0" font-size="11.5" text-anchor="end" fill="#52514e">optical-ambiguous-band</text><rect x="300" y="302" width="132" height="30" rx="4" fill="#256abf"/><text x="366" y="321.0" font-size="12.5" font-weight="600" text-anchor="middle" fill="#ffffff">3/3</text><rect x="434" y="302" width="132" height="30" rx="4" fill="#256abf"/><text x="500" y="321.0" font-size="12.5" font-weight="600" text-anchor="middle" fill="#ffffff">3/3</text><rect x="568" y="302" width="132" height="30" rx="4" fill="#256abf"/><text x="634" y="321.0" font-size="12.5" font-weight="600" text-anchor="middle" fill="#ffffff">3/3</text><text x="288" y="353.0" font-size="11.5" text-anchor="end" fill="#52514e">optical-listing-truncated</text><rect x="300" y="334" width="132" height="30" rx="4" fill="#5598e7"/><text x="366" y="353.0" font-size="12.5" font-weight="600" text-anchor="middle" fill="#ffffff">2/3</text><rect x="306" y="359" width="120" height="3" rx="1.5" fill="#ffffff" opacity="0.9"><title>never answered</title></rect><rect x="434" y="334" width="132" height="30" rx="4" fill="#256abf"/><text x="500" y="353.0" font-size="12.5" font-weight="600" text-anchor="middle" fill="#ffffff">3/3</text><rect x="568" y="334" width="132" height="30" rx="4" fill="#256abf"/><text x="634" y="353.0" font-size="12.5" font-weight="600" text-anchor="middle" fill="#ffffff">3/3</text><text x="288" y="385.0" font-size="11.5" text-anchor="end" fill="#52514e">preview-is-not-the-answer</text><rect x="300" y="366" width="132" height="30" rx="4" fill="#5598e7"/><text x="366" y="385.0" font-size="12.5" font-weight="600" text-anchor="middle" fill="#ffffff">2/3</text><rect x="306" y="391" width="120" height="3" rx="1.5" fill="#ffffff" opacity="0.9"><title>never answered</title></rect><rect x="434" y="366" width="132" height="30" rx="4" fill="#5598e7"/><text x="500" y="385.0" font-size="12.5" font-weight="600" text-anchor="middle" fill="#ffffff">2/3</text><rect x="568" y="366" width="132" height="30" rx="4" fill="#256abf"/><text x="634" y="385.0" font-size="12.5" font-weight="600" text-anchor="middle" fill="#ffffff">3/3</text><text x="288" y="417.0" font-size="11.5" text-anchor="end" fill="#52514e">pulsar-blind-easy</text><rect x="300" y="398" width="132" height="30" rx="4" fill="#5598e7"/><text x="366" y="417.0" font-size="12.5" font-weight="600" text-anchor="middle" fill="#ffffff">2/3</text><rect x="434" y="398" width="132" height="30" rx="4" fill="#256abf"/><text x="500" y="417.0" font-size="12.5" font-weight="600" text-anchor="middle" fill="#ffffff">3/3</text><rect x="568" y="398" width="132" height="30" rx="4" fill="#e9e9e6"/><text x="634" y="417.0" font-size="12.5" font-weight="600" text-anchor="middle" fill="#0b0b0b">0/3</text><text x="288" y="449.0" font-size="11.5" text-anchor="end" fill="#52514e">pulsar-fallback-disclosure</text><rect x="300" y="430" width="132" height="30" rx="4" fill="#5598e7"/><text x="366" y="449.0" font-size="12.5" font-weight="600" text-anchor="middle" fill="#ffffff">2/3</text><rect x="306" y="455" width="120" height="3" rx="1.5" fill="#ffffff" opacity="0.9"><title>off-script call, never answered</title></rect><rect x="434" y="430" width="132" height="30" rx="4" fill="#5598e7"/><text x="500" y="449.0" font-size="12.5" font-weight="600" text-anchor="middle" fill="#ffffff">2/3</text><rect x="440" y="455" width="120" height="3" rx="1.5" fill="#ffffff" opacity="0.9"><title>route violation</title></rect><rect x="568" y="430" width="132" height="30" rx="4" fill="#5598e7"/><text x="634" y="449.0" font-size="12.5" font-weight="600" text-anchor="middle" fill="#ffffff">2/3</text><text x="288" y="481.0" font-size="11.5" text-anchor="end" fill="#52514e">pulsar-peak-does-not-fold</text><rect x="300" y="462" width="132" height="30" rx="4" fill="#5598e7"/><text x="366" y="481.0" font-size="12.5" font-weight="600" text-anchor="middle" fill="#ffffff">2/3</text><rect x="306" y="487" width="120" height="3" rx="1.5" fill="#ffffff" opacity="0.9"><title>never answered</title></rect><rect x="434" y="462" width="132" height="30" rx="4" fill="#5598e7"/><text x="500" y="481.0" font-size="12.5" font-weight="600" text-anchor="middle" fill="#ffffff">2/3</text><rect x="568" y="462" width="132" height="30" rx="4" fill="#e9e9e6"/><text x="634" y="481.0" font-size="12.5" font-weight="600" text-anchor="middle" fill="#0b0b0b">0/3</text><text x="288" y="513.0" font-size="11.5" text-anchor="end" fill="#52514e">pulsar-period-not-from-audio</text><rect x="300" y="494" width="132" height="30" rx="4" fill="#256abf"/><text x="366" y="513.0" font-size="12.5" font-weight="600" text-anchor="middle" fill="#ffffff">3/3</text><rect x="434" y="494" width="132" height="30" rx="4" fill="#5598e7"/><text x="500" y="513.0" font-size="12.5" font-weight="600" text-anchor="middle" fill="#ffffff">2/3</text><rect x="568" y="494" width="132" height="30" rx="4" fill="#5598e7"/><text x="634" y="513.0" font-size="12.5" font-weight="600" text-anchor="middle" fill="#ffffff">2/3</text><text x="288" y="545.0" font-size="11.5" text-anchor="end" fill="#52514e">pulsar-scan-inventory</text><rect x="300" y="526" width="132" height="30" rx="4" fill="#256abf"/><text x="366" y="545.0" font-size="12.5" font-weight="600" text-anchor="middle" fill="#ffffff">3/3</text><rect x="306" y="551" width="120" height="3" rx="1.5" fill="#ffffff" opacity="0.9"><title>off-script call</title></rect><rect x="434" y="526" width="132" height="30" rx="4" fill="#256abf"/><text x="500" y="545.0" font-size="12.5" font-weight="600" text-anchor="middle" fill="#ffffff">3/3</text><rect x="440" y="551" width="120" height="3" rx="1.5" fill="#ffffff" opacity="0.9"><title>off-script call</title></rect><rect x="568" y="526" width="132" height="30" rx="4" fill="#256abf"/><text x="634" y="545.0" font-size="12.5" font-weight="600" text-anchor="middle" fill="#ffffff">3/3</text><rect x="574" y="551" width="120" height="3" rx="1.5" fill="#ffffff" opacity="0.9"><title>off-script call</title></rect><text x="288" y="577.0" font-size="11.5" text-anchor="end" fill="#52514e">vizier-category-not-per-catalog</text><rect x="300" y="558" width="132" height="30" rx="4" fill="#9ec5f4"/><text x="366" y="577.0" font-size="12.5" font-weight="600" text-anchor="middle" fill="#0b0b0b">1/3</text><rect x="306" y="583" width="120" height="3" rx="1.5" fill="#0b0b0b" opacity="0.9"><title>never answered</title></rect><rect x="434" y="558" width="132" height="30" rx="4" fill="#256abf"/><text x="500" y="577.0" font-size="12.5" font-weight="600" text-anchor="middle" fill="#ffffff">3/3</text><rect x="440" y="583" width="120" height="3" rx="1.5" fill="#ffffff" opacity="0.9"><title>route violation</title></rect><rect x="568" y="558" width="132" height="30" rx="4" fill="#e9e9e6"/><text x="634" y="577.0" font-size="12.5" font-weight="600" text-anchor="middle" fill="#0b0b0b">0/3</text><rect x="574" y="583" width="120" height="3" rx="1.5" fill="#0b0b0b" opacity="0.9"><title>route violation, never answered</title></rect><text x="20" y="614" font-size="11.5" fill="#52514e">Correct:</text><rect x="76" y="603" width="16" height="14" rx="3" fill="#e9e9e6"/><text x="98" y="614" font-size="11.5" fill="#52514e">0/3</text><rect x="140" y="603" width="16" height="14" rx="3" fill="#9ec5f4"/><text x="162" y="614" font-size="11.5" fill="#52514e">1/3</text><rect x="204" y="603" width="16" height="14" rx="3" fill="#5598e7"/><text x="226" y="614" font-size="11.5" fill="#52514e">2/3</text><rect x="268" y="603" width="16" height="14" rx="3" fill="#256abf"/><text x="290" y="614" font-size="11.5" fill="#52514e">3/3</text><rect x="332" y="610" width="16" height="3" rx="1.5" fill="#0b0b0b" opacity="0.72"/><text x="354" y="614" font-size="11.5" fill="#52514e">wrong route</text></svg>